# xmcd
#
# Track frame offsets:
#	150
#	19790
#	41083
#	58017
#	72092
#	88096
#	105048
#	122192
#	136684
#	150999
#	166424
#	183136
#
# Disc length: 2659 seconds
#
# Revision: 2
# Processed by: cddbd v1.5.2PL0 Copyright (c) Steve Scherf et al.
# Submitted via: audiograbber 1.83.01
#
DISCID=8d0a610c
DTITLE=COMPILATION - CB60445
DYEAR=2010
DGENRE=
TTITLE0=Lady Antebellum - Our Kind Of Love
TTITLE1=Urban, Keith  - I'm In
TTITLE2=Worley, Darryl  - Keep The Change
TTITLE3=Rimes, Le Ann  - Swingin
TTITLE4=Adkins, Trace - This Ain't No Love Song
TTITLE5=Rich, John  - Country Done Come To Town
TTITLE6=Olson, Troy  - Summer Thing
TTITLE7=Currington, Billy - Pretty Good At Drinking Beer
TTITLE8=Moore, Justin  - How I Got To Be This Way
TTITLE9=Bomshel - Just Fine
TTITLE10=Wesley, James  - Real
TTITLE11=Mc Curdy,  Jennette  - Not That Far Away
EXTD=
EXTT0=
EXTT1=
EXTT2=
EXTT3=
EXTT4=
EXTT5=
EXTT6=
EXTT7=
EXTT8=
EXTT9=
EXTT10=
EXTT11=
PLAYORDER=
